<svg xmlns="http://www.w3.org/2000/svg" width="150" height="150" fill="none" viewBox="0 0 150 150"><g clip-path="url(#a)"><path fill="#0c2032" d="M75.009 150.018c41.426 0 75.009-33.583 75.009-75.009S116.435 0 75.009 0 0 33.583 0 75.009s33.583 75.009 75.009 75.009"/><path fill="#dfdede" d="M75.009 4.009c-39.22 0-71 31.78-71 71s31.78 70.982 70.982 70.982 70.982-31.78 70.982-70.982-31.762-71-70.964-71m0 139.472c-37.83 0-68.49-30.66-68.49-68.49s30.66-68.472 68.49-68.472 68.49 30.66 68.49 68.49-30.66 68.49-68.49 68.49z"/><path fill="#dfdede" d="M75.009 137.252a4.08 4.08 0 1 0 0-8.162 4.08 4.08 0 0 0 0 8.162m-32.141-30.138c-8.217-8.216-13.29-19.573-13.29-32.105a45.33 45.33 0 0 1 6.644-23.673.9.9 0 0 0 .109-.379c0-.65.108-1.3.198-1.896.163-1.065.325-2.149.596-3.196.036-.108 0-.127-.072-.036-6.428 8.324-9.913 18.472-9.913 29.18 0 13.29 5.435 25.316 14.21 34.001.091.073.2.073.271-.018.416-.559.85-1.101 1.264-1.571a.244.244 0 0 0 0-.307z"/><path fill="#dfdede" d="M49.422 34.525a47.5 47.5 0 0 0-6.211 4.695c-.036.018-.055.054-.09.072-.073.072-.163.145-.236.217a10.7 10.7 0 0 0-1.625 1.932c-.848 1.3-1.426 2.745-1.77 4.261a14 14 0 0 0-.216 1.264 8 8 0 0 0-.072.632c0 .055.054.073.09.037.307-.488.849-.994 1.174-1.355a8 8 0 0 1 1.625-1.3 7.14 7.14 0 0 1 3.54-.975c1.588-.018 3.069.488 4.568.921 2.925.813 5.904 2.076 8.992 1.896.83-.054 1.643-.199 2.456-.415 2.564-.705 5.02-2.15 7.169-3.558.216-.144.433-.288.65-.451 1.336-.92 2.636-1.914 3.791-3.034.344-.343.271-.47-.198-.325-2.853.921-5.814.596-8.631-.415-2.6-.92-5.056-1.932-7.82-2.33a25 25 0 0 0-3.502-.252c-.74.018-1.427.144-1.824.217a.5.5 0 0 0-.162.036c-.09.018-.235.054-.29 0a.16.16 0 0 1-.053-.127.3.3 0 0 1 .09-.198c.27-.235 1.896-.867 2.907-1.246.451-.163.903-.361 1.336-.578a45.1 45.1 0 0 1 19.9-4.587c25.08 0 45.431 20.333 45.431 45.432s-20.333 45.432-45.432 45.432c-10.293 0-19.772-3.431-27.392-9.192-.09-.072-.073-.144.036-.162a47 47 0 0 1 9.498-.975c7.89 0 15.33 1.968 21.83 5.453.362.199.795.217 1.174.054a4 4 0 0 0 .398-.198c1.932-1.012 3.936-1.932 5.94-2.835.109-.054.199-.091.199-.091s.09-.036.199-.072c.884-.397 1.77-.776 2.636-1.174l.18-.09.181-.09c3.178-1.427 6.32-2.889 9.263-4.713l.18-.108.181-.109a64 64 0 0 0 1.445-.939 35.5 35.5 0 0 0 4.93-4.099c8.306-8.324 7.656-22.806-1.626-30.028-2.112-1.644-4.514-2.908-6.807-4.316-.614-.38-1.264-.686-1.842-.993-.108-.054-.126-.199-.036-.29 2.474-2.654 5.02-5.019 7.078-7.746 3.648-4.82 3.847-7.855.596-12.206-3.611-4.821-8.432-8-14.337-9.48-2.347-.596-4.334.036-6.41 1.192-3.882 2.166-10.04 8.143-12.315 11.358-2.6 3.647-3.955 7.854-3.846 12.802.162 6.537.054 29.433.054 41.206a.313.313 0 0 1-.343.307c-1.192-.108-5.4-.217-10.184.921-2.185.524-5.526 1.77-8.704 3.774-.18.108-.38.235-.56.343a30 30 0 0 0-3.666 2.709 20 20 0 0 0-1.66 1.625c-.09.108-.2.198-.29.307a19 19 0 0 0-1.408 1.805c-.054.073 0 .145.054.181h.09a44 44 0 0 0 2.276-1.101c.144-.073.27-.145.415-.199.686-.343 1.39-.704 2.095-1.029a.33.33 0 0 1 .343.036c8.234 6.663 18.689 10.653 30.083 10.653 26.399 0 47.869-21.469 47.869-47.869s-21.47-47.87-47.87-47.87c-9.1 0-17.93 2.565-25.586 7.404zM85.61 45.161c4.17.957 9.028 3.232 10.364 7.692.849 2.853.614 5.562-1.101 8.108-1.174 1.733-3.576 3.882-6.302 5.796-1.896 1.336-9.462 5.29-13.182 6.537-.108.036-.198-.037-.198-.145.054-9.895.09-19.068.072-23.582-.018-5.526 6.699-5.255 10.347-4.424zm-10.78 56.825a1.5 1.5 0 0 0 .27-.144v-.054c0-6.05.036-17.732.073-25.19 0-.27 1.137-.722 2.42-1.156 4.333-1.48 7.222-1.896 9.118-1.625 1.625.217 3.178.777 4.64 1.463 7.224 3.377 10.961 14.301 8 21.596-.885 2.203-2.672 4.171-4.84 5.688-.144.108-.288.199-.45.307l-.181.108-.18.109c-2.168 1.354-4.66 2.257-7.025 2.528h-.108c-.163 0-.326.036-.488.036h-1.173c-.2 0-.416-.018-.615-.036-.144 0-.307-.036-.451-.054-.108 0-.217-.018-.325-.037-3.359-.433-6.808-1.426-10.058-2.239 0 0-.325-.072-.56-.126-.126-.036-.288-.054-.288-.09 0 0 0-.036.036-.054a373 373 0 0 1 2.166-1.03z"/><path fill="#dfdede" d="M56.555 50.38s-.18.144-.217.162c0 0-.036.018-.054.036l-6.519 5.254a1.82 1.82 0 0 0-.686 1.427v9.444c0 .108-.036.289-.054.397-1.445 4.569-3.485 8.884-6.085 12.73a.95.95 0 0 0-.145.452v2.492c0 .144.054.216.127.144l.108-.108c2.402-3.25 4.388-6.862 5.977-10.69.036-.108.072-.09.072 0v14.933c0 .127-.09.307-.199.38l-.216.144c-.108.072-.163.198-.163.343.055 1.318-.072 10.112 0 13.832 0 .072 0 .144-.036.216-.054.109-.849 1.806-.849 1.806-.054.126.073.235.181.181a58 58 0 0 1 4.225-2.167c.235-.109.47-.199.705-.289a29 29 0 0 1 2.058-.632 25 25 0 0 1 2.582-.56c.09 0 .145-.09.145-.163.072-3.503.144-10.563.198-11.9a.42.42 0 0 0-.162-.342l-1.553-1.066c-.108-.072-.09-.144.036-.144h7.44c.144-.018.252-.126.252-.27v-4.587a.247.247 0 0 0-.252-.253h-5.49a.247.247 0 0 1-.253-.253v-6.23a.36.36 0 0 0-.162-.307l-1.571-1.155c-.108-.073-.09-.145.054-.145h7.422a.247.247 0 0 0 .252-.253v-4.586a.247.247 0 0 0-.252-.253h-5.49a.247.247 0 0 1-.253-.253v-5.724a.39.39 0 0 0-.144-.307l-1.607-1.282c-.108-.09-.09-.144.054-.144h7.44a.247.247 0 0 0 .252-.253V55.85a.247.247 0 0 0-.252-.252h-5.49a.247.247 0 0 1-.253-.253v-5.146c0-.343-.379-.542-.632-.325l-.541.433zm49.404-19.773 5.164-6.374s.199-.109.289-.037l.939.759s.108.199.036.289l-4.315 5.327s-.055.216.036.288l4.929 3.991s.109.199.036.289l-.577.722s-.199.109-.289.036l-6.176-5.001s-.108-.199-.036-.29zm-54.153 93.192c.108.054.126.181.072.289l-4.08 7.133c-.055.108-.181.126-.29.072l-4.315-2.456c-1.86-1.065-2.402-2.419-1.752-3.575l.054-.109c.416-.74 1.264-1.155 2.348-.866.108.036.126 0 .036-.072-.921-.849-.94-1.86-.614-2.438l.054-.109c.686-1.209 2.239-1.408 4.099-.343l4.334 2.474zm-8.017 3.81 2.997 1.716c.108.054.235.018.289-.073l.993-1.733c.054-.108.018-.235-.072-.289l-2.925-1.679c-1.03-.596-1.77-.361-2.077.18v.036c-.343.56-.235 1.246.813 1.842zm1.823-3.051 2.925 1.679c.109.054.235.018.29-.072l1.01-1.752c.055-.108.019-.235-.072-.289l-2.997-1.715c-1.03-.596-1.697-.325-2.023.235v.036c-.343.559-.18 1.282.867 1.878m-13.94-17.137-.722 1.86a.5.5 0 0 0 .054.361l3.016 3.54s.234.144.343.108l1.932-.451c.108-.019.27.018.343.108l.849.975s.036.181-.073.199l-9.173 1.986c-.108.018-.27-.018-.343-.108l-.614-.705s-.108-.252-.054-.361l3.323-8.83c.036-.108.126-.126.216-.036l.867 1.011s.108.253.054.361zm-2.582 7.097 3.575-.831c.109-.018.145-.126.072-.198l-2.22-2.583s-.163-.072-.217.037l-1.336 3.448c-.037.109 0 .181.126.145zm-7.331-18.924 2.817-1.137c.108-.037.234 0 .27.108l.452 1.12c.036.108 0 .234-.108.27l-2.835 1.138a.6.6 0 0 0-.29.27l-2.96 5.598c-.055.109-.127.091-.181 0l-.56-1.39a.55.55 0 0 1 .018-.379l2.275-4.226c.055-.108 0-.216-.108-.234l-4.478-1.282a.47.47 0 0 1-.271-.253l-.56-1.39c-.036-.109 0-.163.127-.127l6.03 1.932a.74.74 0 0 0 .398 0zm-7.024-29.487 2.022.361a.204.204 0 0 0 .235-.163l.722-4.044a.204.204 0 0 1 .235-.163l.848.163a.203.203 0 0 1 .163.234l-.722 4.045a.204.204 0 0 0 .162.235l3.052.56c.108.018.18.126.162.235l-.216 1.173a.204.204 0 0 1-.235.163l-8.09-1.463a.204.204 0 0 1-.162-.235l1.3-7.15a.204.204 0 0 1 .235-.163l.92.163a.203.203 0 0 1 .163.234l-1.011 5.58a.204.204 0 0 0 .162.235zm13.651-17.443c-1.517 2.654-4.406 3.286-6.41 2.149l-.253-.145c-2.023-1.155-2.926-3.954-1.409-6.609 1.517-2.672 4.388-3.322 6.41-2.167l.253.145c1.986 1.137 2.925 3.954 1.409 6.627m-2.438-5.327c-1.445-.83-3.359-.506-4.442 1.408s-.397 3.702 1.065 4.533l.18.108c1.445.83 3.36.524 4.461-1.39s.38-3.72-1.083-4.55zm14.626-9.354c-2.347 1.969-5.272 1.553-6.753-.198l-.18-.217c-1.5-1.788-1.373-4.713.956-6.681 2.348-1.968 5.255-1.59 6.772.18l.18.217c1.481 1.752 1.373 4.713-.975 6.7m-.433-5.85c-1.084-1.282-2.961-1.643-4.659-.217-1.68 1.427-1.643 3.34-.578 4.623l.127.162c1.083 1.282 2.98 1.662 4.659.253 1.679-1.426 1.643-3.358.56-4.64l-.127-.163zM54.767 17.57l2.384 6.446c.036.108 0 .235-.127.27l-1.137.416c-.109.036-.235 0-.271-.126l-2.384-6.447c-.036-.108-.162-.162-.27-.126l-3.143 1.156c-.108.036-.234 0-.27-.127l-.325-.867c-.036-.108 0-.234.126-.27l8.198-3.034c.108-.036.235 0 .27.126l.326.867c.036.108 0 .235-.127.271l-3.142 1.156c-.108.036-.162.162-.126.27zm15.836 3.593c-.108 0-.217-.09-.217-.199l-.072-8.216c0-.108.09-.216.199-.216l4.965-.037c2.15-.018 3.305.885 3.305 2.222v.108c0 .849-.506 1.625-1.589 1.932-.108.036-.108.072 0 .09 1.228.271 1.751 1.12 1.751 1.806v.108c0 1.409-1.227 2.348-3.376 2.366l-5.002.054zm5.002-7.313-3.449.036c-.108 0-.199.09-.199.217v2.004a.235.235 0 0 0 .235.198l3.377-.036c1.192 0 1.697-.577 1.697-1.21v-.035c0-.65-.451-1.192-1.643-1.174zm-.036 3.539-3.377.036c-.108 0-.198.09-.198.217v2.022a.235.235 0 0 0 .234.199l3.45-.036c1.19 0 1.624-.578 1.624-1.228v-.036c0-.65-.505-1.192-1.715-1.174zm43.21 25.785 6.952-4.388c.091-.054.235-.036.289.073l.65 1.011c.055.09.036.235-.072.289l-5.814 3.666a.225.225 0 0 0-.072.288l3.376 5.363c.054.09.036.235-.072.29l-.795.487c-.09.054-.234.036-.288-.072l-4.244-6.736c-.054-.09-.036-.234.072-.289zm16.36 36.296c.668-.76 1.264-1.843 1.282-3.287.018-2.312-1.535-3.612-3.196-3.63h-.162c-1.626-.018-3.178 1.264-3.197 3.684 0 1.336.578 2.474 1.21 3.232a.24.24 0 0 1 0 .307l-.722.686s-.217.072-.289 0c-.867-.975-1.553-2.51-1.535-4.315.036-3.269 2.185-5.219 4.515-5.2h.288c2.33.035 4.515 2.22 4.479 5.38-.018 1.734-.723 3.305-1.626 4.225-.072.09-.216.073-.288 0l-.723-.722s-.09-.216 0-.307zm-8.09 10.635 7.711 2.835c.108.036.162.162.126.27l-.415 1.138c-.036.109-.163.163-.271.127l-6.446-2.384c-.109-.036-.235 0-.271.126l-2.185 5.941c-.036.108-.163.163-.271.127l-.867-.325c-.108-.037-.162-.163-.126-.271l2.745-7.458c.036-.108.162-.162.27-.126m-5.055 18.237 3.701 3.106s.109.199.018.289l-.758.903s-.199.108-.289.018l-3.72-3.124c-1.228-1.029-2.618-.831-3.9.704-1.318 1.571-1.138 2.817.09 3.846l3.72 3.124s.108.199.018.289l-.776.921s-.199.108-.289.018l-3.702-3.106c-1.643-1.372-2.131-3.575-.036-6.067 1.986-2.365 4.207-2.383 5.923-.939zm-16.667 11.286c.09-.054.235-.018.289.072l4.207 7.061a.226.226 0 0 1-.072.288l-4.262 2.546c-1.841 1.102-3.286.903-3.972-.234l-.054-.109c-.434-.74-.38-1.661.379-2.473.072-.091.054-.109-.054-.073-1.192.398-2.077-.09-2.42-.668l-.054-.108c-.722-1.21-.127-2.636 1.715-3.738zm-2.366 5.76 2.889-1.733c.091-.054.127-.181.073-.289l-1.03-1.734c-.054-.09-.18-.126-.288-.072l-2.962 1.77c-1.029.614-1.119 1.318-.776 1.878v.036c.361.56 1.047.776 2.094.144m1.752 3.088 2.961-1.77c.091-.054.127-.18.072-.289l-1.029-1.715c-.054-.09-.18-.126-.289-.072l-2.889 1.733c-1.029.614-1.192 1.355-.848 1.896v.036c.361.56 1.011.795 2.04.181zM96.334 16.504a.4.4 0 0 0-.234-.27l-.885-.308a.38.38 0 0 0-.343.073l-6.97 6.301s-.073.163.036.217l1.228.434c.108.036.27 0 .343-.073l1.444-1.372s.235-.108.343-.072l4.388 1.553a.4.4 0 0 1 .235.27l.307 1.987c0 .108.127.235.235.27l1.246.434c.108.036.18-.018.162-.145zm-.848 5.146-3.214-1.137c-.109-.036-.127-.127-.037-.217l2.673-2.51s.162-.054.18.072l.56 3.666c0 .108-.054.18-.162.145z"/></g><defs><clipPath id="a"><path fill="#fff" d="M0 0h150v150H0z"/></clipPath></defs></svg>