<svg xmlns="http://www.w3.org/2000/svg" id="Layer_1" data-name="Layer 1" viewBox="0 0 144.89 173.79"><defs><style>.cls-1{fill:#fff}.cls-2{fill:#0046aa}</style></defs><path d="M72.22 0C49.83.06 27.86 3.74 6.91 10.92l-3.56 1.22-.38 3.74C1.42 31.16.39 47.96 0 64.48v.18c.18 23.1 7.01 45.41 19.77 64.52 12.96 19.22 29.86 33.6 50.37 43.37l2.57 1.24 2.56-1.25c20.61-10.07 37.96-25.16 50.16-43.64 12.68-19.19 19.4-41.54 19.46-64.63v-.18c-.48-16.5-1.6-33.28-3.24-48.53l-.4-3.73-3.56-1.2C116.64 3.51 94.61-.06 72.22 0" class="cls-2"/><path d="M139.01 64.25c-.46-15.77-1.55-32.63-3.2-48.08C115.89 9.44 94.53 5.8 72.24 5.86c-22.22.06-43.58 3.8-63.42 10.6-1.57 15.48-2.57 32.36-2.94 48.15.35 45.59 27.46 83.69 66.81 102.65 39.25-19.17 66.22-57.43 66.33-103.01Z" style="fill:#f0000f"/><path d="M139.01 64.25c-.46-15.77-1.55-32.63-3.2-48.08C115.89 9.44 94.53 5.8 72.24 5.86c-22.22.06-43.58 3.8-63.42 10.6-1.57 15.48-2.57 32.36-2.94 48.15.35 45.59 27.46 83.69 66.81 102.65 39.25-19.17 66.22-57.43 66.33-103.01Z" style="fill:none"/><path d="M22.22 122.11 135.7 80.45l2.21-.81c.7-5.02 1.08-10.16 1.09-15.39-.09-3.24-.22-6.54-.37-9.86l-2.77 1.02-123.74 45.43c.13.38.28.76.42 1.14.27.73.53 1.46.81 2.18.19.49.38.97.58 1.46.25.63.51 1.25.77 1.87.21.48.41.97.62 1.45.42.96.86 1.91 1.3 2.85.25.53.51 1.05.77 1.57.25.51.5 1.01.76 1.51.29.57.59 1.13.89 1.7l.72 1.32c.78 1.4 1.58 2.8 2.41 4.16.01.02.03.04.04.07Z" class="cls-2"/><path d="m46.9 107.06 3.12-1.1-.05 1.07-2.64.94zm6.13-4.15.42-1.9c1.05-.03 2-.22 2.96-.57 1.18-.43 1.45-.75 1.45-1.67 0-.67-.03-.94-.67-.93-.26 0-.64.05-1.12.12-.58.09-1 .13-1.33.13-.65 0-1.02-.15-1.23-.5-.23-.38-.28-1-.28-1.82 0-2.17.85-3.18 3.54-4.17.7-.26 1.82-.61 3.13-.81l-.27 2c-1.05.18-1.86.37-2.85.73-1.05.38-1.3.67-1.3 1.46 0 .7.03.94.61.93.25 0 .61-.05 1.12-.11.56-.07.99-.11 1.33-.11 1.5 0 1.56.64 1.57 2.24 0 1.97-.59 3.26-3.76 4.42-.99.36-2.05.57-2.92.57-.15 0-.29 0-.42-.02Zm-7.84-5.94-.41-.86 6.89-2.48.01 2.03-4.24 1.5.01 1.93 3.91-1.37v2.03l-3.91 1.37.01 2.3 4.24-1.5v2.03l-6.49 2.34zm-14.87 14.66c-.63 0-1.11-.19-1.43-.57-.31-.36-.46-.89-.46-1.58v-4.33c-.02-2.03 1.31-3.64 3.73-4.52 1.01-.37 1.94-.61 2.99-.77l-.37 2.11c-.86.14-1.88.42-2.65.7-1.22.45-1.47 1.12-1.47 2v3.58c.01.78.24 1.11.76 1.11.2 0 .45-.06.76-.17.77-.28 1.8-.75 2.68-1.23l.27 1.89c-1.06.58-1.98 1.02-2.97 1.38-.71.26-1.33.39-1.84.39Zm6.15-3.98 4.53-8.2-4.4 1.54.05-1.88 6.94-2.52-.05 1.88-4.49 8.17 4.64-1.62-.05 1.87-7.16 2.6zM63.85 91.2l-2.84.98.05-2.03 7.87-2.86-.04 2.03-2.76.99-.01 8.33-2.25.8zm23.72-9.9-.36-.77 2.61-.93.01 4.09 3.39-1.19.02-4.16 2.25-.82.03 10.33-2.31.82-.01-4.14-3.34 1.19-.01 4.21-2.26.8zm-6.25 11.6c-.63 0-1.11-.19-1.43-.57-.31-.36-.46-.89-.46-1.58v-4.33c-.02-2.03 1.31-3.64 3.73-4.52 1.01-.37 1.93-.61 3-.77l-.37 2.11c-.84.14-1.86.41-2.65.7-1.05.38-1.47.96-1.47 2v3.58c.01.78.24 1.11.76 1.11.2 0 .45-.05.76-.17.76-.28 1.79-.75 2.68-1.23l.27 1.89c-1.08.59-2 1.03-2.97 1.38-.71.26-1.33.39-1.84.39Zm-9.26 3.39c-1.29 0-2.03-.75-2.03-2.07v-4.33c-.02-1.52 1.03-3.53 3.96-4.61.73-.27 1.38-.41 1.93-.41 1.29 0 2.03.75 2.04 2.07v4.33c.02 1.52-1.03 3.53-3.97 4.61-.73.27-1.38.41-1.93.41m2.81-9.21c-.24 0-.55.07-.9.19-1.12.41-1.7 1.09-1.7 1.96v3.92c.01.62.29.93.85.93.24 0 .55-.07.9-.19 1.12-.41 1.71-1.09 1.7-1.96v-3.92c-.01-.61-.29-.92-.85-.92Zm47.93-18.64-.38-.83.64-.19 3.11-1.14 3.15 9.18-2.4.84-.51-1.79-3.52 1.25-.58 2.26-2.33.83 2.82-10.4Zm.58 5.2 2.43-.83-1.21-4.1-1.22 4.92ZM99.19 86.32c-1.29 0-2.03-.75-2.03-2.07v-4.33c-.02-1.52 1.03-3.53 3.96-4.61.73-.27 1.38-.41 1.93-.41 1.29 0 2.03.75 2.04 2.07v4.33c.02 1.52-1.03 3.53-3.97 4.61-.73.27-1.38.41-1.93.41m2.81-9.21c-.24 0-.55.07-.9.19-1.12.41-1.7 1.09-1.7 1.96v3.92c.01.62.29.93.85.93.25 0 .55-.07.9-.19 1.12-.41 1.7-1.09 1.7-1.96v-3.92c-.01-.61-.29-.92-.85-.92Zm14.33.15-1.74-6.73-2.82 1.01-1.86 8.07-1.73-6.73-2.27.79 2.57 9.39 2.9-1.04 1.81-8.52 1.71 7.21 2.95-1.07 2.55-11.25-2.28.83z" class="cls-1"/><path d="m30.2 67.93-.15-53.74c-4.26.96-8.48 2.07-12.67 3.32l.15 55.07 12.66-4.65Zm24.28-8.91-.13-48.69c-4.25.4-8.47.93-12.67 1.61l.14 51.72 12.66-4.65Zm24.27-8.91-.11-40.56c-2.13-.06-4.26-.1-6.39-.09s-4.19.05-6.28.13l.12 45.17zm24.27-8.91-.08-29.4c-4.2-.66-8.43-1.17-12.68-1.56l.1 35.6 12.66-4.65Zm24.28-8.91-.04-15.02c-4.19-1.23-8.42-2.32-12.69-3.26l.06 22.94 12.66-4.65Zm11.34 22.11-2.77 1.01-123.75 45.43m10.1 21.27 113.49-41.65 2.21-.82" class="cls-2"/><path d="M137.51 82.33 23.52 124.17c.38.6.76 1.21 1.16 1.8l47.84-17.56.16 58.86c33.21-16.22 57.61-46.12 64.4-82.55h.03c.15-.8.28-1.59.4-2.39m-.32-51.2L71.82 55.12l.07 23.72 66.75-24.45c-.34-7.72-.83-15.55-1.45-23.26" style="fill:#d7000f"/><path d="m31.94 77.52-.42-.91 4.91-1.75c.79-.29 1.42-.43 1.93-.43 1.11 0 1.64.68 1.64 2.15v1.34c0 1.37-.5 2.45-1.55 3.27l2.63 2.82-2.89 1-2.36-2.49-1.47.52-.02 3.41-2.37.84zm5.09-.69c-.19 0-.44.06-.76.18l-1.94.71-.02 3.24 1.99-.67c1.11-.41 1.33-.94 1.33-1.71v-.86c0-.62-.18-.88-.6-.88Zm5.07-3.05-.42-.9 2.84-.99v10.83l-2.39.84zm2.76 3.25 2.92-6.36 2.73-.99-3.08 6.39 3.3 4.39-2.71.94-3.16-4.36Zm6.48 2.61.44-2c1.11-.03 2.1-.23 3.11-.6 1.24-.45 1.52-.78 1.52-1.75 0-.7-.03-.98-.7-.98-.27 0-.67.05-1.17.12-.61.09-1.05.13-1.4.13-.68 0-1.07-.16-1.29-.52-.24-.4-.29-1.05-.3-1.91 0-2.28.9-3.34 3.72-4.38.74-.27 1.92-.64 3.29-.85l-.28 2.1c-1.1.19-1.95.38-2.99.77-1.1.4-1.36.7-1.36 1.52 0 .73.03.98.64.98.25 0 .59-.04 1.07-.1.7-.09 1.14-.13 1.5-.13 1.58 0 1.64.68 1.65 2.35 0 2.07-.62 3.42-3.94 4.64-1.03.38-2.15.6-3.06.6-.15 0-.3 0-.44-.02Zm21.08-13.68v-1.34c0-1.47-.53-2.16-1.65-2.16-.52 0-1.15.14-1.94.43l-4.92 1.76.42.91.03 9.79 2.37-.84v-3.42l1.5-.52 2.37 2.5 2.89-1-2.63-2.82c1.05-.83 1.56-1.9 1.56-3.28Zm-2.37.65c0 .77-.21 1.3-1.33 1.71l-2 .68v-3.24l1.96-.71c.32-.12.57-.17.76-.18.42 0 .61.26.61.88zm30.7-17.11.05-1.13-3.28 1.16.45.96zm-6.77 4.16-2.74.99-2.93 6.38 3.17 4.37 2.71-.95-3.3-4.39zm21.05.02-1.84-7.07-2.96 1.07-1.95 8.47-1.82-7.07-2.39.83 2.7 9.87 3.05-1.1 1.9-8.95 1.8 7.57 3.1-1.11 2.68-11.83-2.39.88zm-13.96-2.47c-.58 0-1.26.14-2.03.43-3.09 1.13-4.18 3.25-4.18 4.84v4.55c.02 1.39.8 2.18 2.15 2.18.58 0 1.26-.15 2.03-.43 3.09-1.13 4.19-3.25 4.18-4.84v-4.55c-.02-1.39-.8-2.18-2.16-2.18Zm-.22 7.41c0 .92-.61 1.63-1.79 2.06-.37.14-.69.21-.95.21-.58 0-.87-.32-.87-.97V55.8c-.01-.92.6-1.63 1.77-2.06.37-.14.69-.2.95-.2.58 0 .88.32.88.97v4.12Zm-23.86 1.23.4.87-2.97 10.93 2.45-.88.61-2.37 3.69-1.31.54 1.88 2.52-.88-3.31-9.64-3.94 1.4ZM78 66.18l1.28-5.16 1.27 4.29zm7.12-9.32.42.91.03 9.79 2.37-.84.02-10.85z" class="cls-1"/><path d="M141.35 64.19c-.48-16.41-1.59-33.09-3.22-48.26l-.16-1.49-1.42-.48C115.88 6.97 94.24 3.46 72.23 3.52c-22 .06-43.59 3.67-64.18 10.73l-1.42.49-.15 1.5c-1.55 15.19-2.57 31.9-2.96 48.33v.08c.17 22.41 6.8 44.05 19.18 62.59 11.94 17.9 28.87 32.47 48.96 42.15l1.03.49 1.02-.5c20.05-9.79 36.91-24.46 48.77-42.42 12.3-18.62 18.82-40.3 18.87-62.7v-.08Zm-2.35.07c-.01 5.24-.4 10.39-1.1 15.42L22.24 122.14A111 111 0 0 1 6.9 78.96l130.29-47.83c.88 11.02 1.5 22.32 1.82 33.12ZM8.81 16.47c19.84-6.8 41.2-10.54 63.42-10.6 22.28-.06 43.64 3.58 63.57 10.31.44 4.09.83 8.28 1.19 12.52L6.6 76.57c-.44-3.92-.69-7.9-.73-11.94.37-15.79 1.37-32.67 2.94-48.15Zm63.87 150.8c-20.32-9.79-37.37-24.7-49.16-43.1l113.99-41.84c-6.15 37.52-30.89 68.36-64.83 84.94" class="cls-1"/><path d="m86.14 128.26.03 10.95H84.6s-.02-6.75-.03-9.35h-1.95l-.02-1.56h3.55Zm-6.67 9.4H79c-1.24 0-2.48 0-3.72.01 0-.02-.02-.03-.02-.04 0-.03 0-.07.02-.1.15-.46.45-.82.8-1.13.43-.37.91-.65 1.41-.92.57-.31 1.14-.62 1.7-.94.43-.24.81-.54 1.14-.91.34-.38.53-.82.62-1.32.06-.3.06-.61.05-.92-.02-.39-.11-.76-.28-1.11a3.2 3.2 0 0 0-.94-1.18c-.36-.29-.75-.5-1.18-.65a5 5 0 0 0-1.01-.21c-.3-.03-.58 0-.87.03-.64.09-1.23.31-1.75.69-.44.32-.81.72-1.06 1.21-.19.36-.29.74-.34 1.14a.7.7 0 0 0 0 .25h1.56v-.06c0-.27.08-.49.2-.7.27-.46.69-.71 1.18-.87.17-.05.34-.07.51-.1.25-.05.49-.02.73.02.38.06.73.21 1.03.45.39.32.65.71.65 1.23v.37c-.02.33-.16.6-.39.82-.2.2-.44.36-.69.5-.59.32-1.18.63-1.77.95-.37.2-.73.41-1.07.66-.47.34-.88.74-1.21 1.22-.41.6-.62 1.27-.68 1.99-.03.39 0 .79 0 1.2 2.45 0 4.88-.01 7.32-.02h.08v-1.54h-1.58Zm-17.42-9.33.03 10.95h-1.57s-.02-6.75-.03-9.35h-1.97v-1.57h3.54Zm2.81 5.17c.36.61.85 1.09 1.47 1.42.61.32 1.25.49 1.94.47h.25l-2.55 3.88h1.85l2.78-4.16c.42-.62.81-1.25 1.11-1.93.2-.45.33-.93.31-1.43 0-.15-.02-.31-.04-.46-.05-.47-.21-.91-.44-1.31a4 4 0 0 0-.8-.99c-.42-.37-.89-.64-1.42-.8a3.77 3.77 0 0 0-3.26.49c-.46.32-.83.71-1.12 1.19-.43.73-.62 1.5-.52 2.34.05.46.19.89.43 1.29Zm3.32-3.92c.61 0 1.14.2 1.58.61.47.43.71.98.71 1.6-.01 1.24-.89 2.25-2.23 2.27-1.31.02-2.28-1.1-2.25-2.23-.05-1.2.99-2.26 2.19-2.26Z" class="cls-1"/></svg>