<svg xmlns="http://www.w3.org/2000/svg" viewBox="5 5 290 290"><path d="M170.129 317.17c79.862 0 145.011-65.15 145.011-145.012 0-79.84-65.149-144.988-145.011-144.988-79.84 0-144.989 65.149-144.989 144.988 0 79.863 65.15 145.012 144.989 145.012" data-source="https://football-logos.cc" style="fill:#fff;fill-rule:nonzero;stroke:none" transform="translate(-20.14 -22.17)"/><path d="M169.81 32.873c76.942 0 139.627 62.685 139.627 139.171 0 76.738-62.685 139.423-139.627 139.423-76.281 0-138.921-62.685-138.921-139.423 0-76.486 62.64-139.171 138.92-139.171" style="fill:#ed2d32;fill-rule:nonzero;stroke:none" transform="translate(-20.14 -22.17)"/><path d="M169.81 41.085c72.266 0 131.187 58.921 131.187 130.96 0 72.288-58.921 131.187-131.187 131.187-71.833 0-130.481-58.899-130.481-131.188 0-72.038 58.648-130.96 130.48-130.96" style="fill:#fff;fill-rule:nonzero;stroke:none" transform="translate(-20.14 -22.17)"/><path d="M217.211 204.231c-3.467-3.672-7.117-6.684-10.949-9.147a49.8 49.8 0 0 0-10.904-5.178c3.376 3.148 6.935 6.478 10.904 9.215 3.33 2.259 6.935 4.106 10.95 5.11m-77.056-57.872a38.1 38.1 0 0 0 12.295 8.166c-4.288-4.288-7.847-8.394-12.295-12.158a53 53 0 0 0-6.684-4.676 40.6 40.6 0 0 0 6.684 8.668m66.107-11.406a33 33 0 0 0 2.076-4.448c-.707.41-1.369.89-2.076 1.369-6.524 4.494-11.862 11.018-13.664 17.61 5.543-3.787 10.31-8.349 13.664-14.53m-66.107 107.784c-4.768 1.049-10.014 1.55-13.641.775-13.96-3.878-8.532-25.366-24.386-27.305-5.976-5.2-9.101-12.204-9.101-19.161 0-11.018 9.33-18.318 19.526-20.667 8.714-2.076 18.135-2.076 27.602-1.917 6.296.114 12.569.274 18.682-.045l1.94-1.962-3.947-2.692c-5.2-.547-10.904-.41-16.675-.182-18.956.73-38.962 2.418-47.128-15.786-.822-2.623-1.323-5.292-1.369-7.938v-1.323c.114-5.292 1.962-10.356 5.863-14.394 22.377-1.163 15.466-33.1 40.444-32.118.73 0 1.437.091 2.19.205 7.117 1.004 13.938 6 17.337 11.451 9.671 15.238 2.28 39.806 12.363 55.09 8.052-21.489-9.353-59.56 22.378-67.567 6.022-1.483 10.448-.594 14.029 1.596 9.695 5.863 13.459 20.827 26.94 22.036 5.11 2.35 7.642 8.326 7.802 13.185.958 13.116-10.653 25.526-22.47 28.24-3.946.913-8.075 1.369-12.272 1.894-9.444 1.049-19.184 2.03-26.963 6.98 5.748 3.832 15.786.593 21.625-.57 1.71-.32 3.513-.662 5.338-1.072 13.071-2.76 28.491-6.57 37.456 4.927 4.448 5.634 5.977 14.12 4.289 21.26-2.966 11.839-17.428 13.208-18.455 25.708.799 7.825-4.995 13.368-10.653 16.15-3.375 1.483-8.143 2.533-12.637 2.464-4.494-.091-8.714-1.3-10.904-4.265-10.812-14.486-13.436-33.99-21.237-50.3l-1.027 1.917c1.164 20.165 8.167 39.121 1.027 58.807-4.152 2.35-8.691 2.715-11.429-1.71 3.49-17.428 7.893-39.076 5.749-56.344l-1.825-1.848c-8.326 24.111-12.09 48.314-17.838 53.743-2.213 1.05-5.315 2.03-8.623 2.738m0-46.558c-3.559 2.623-6.638 5.52-9.033 10.014 2.965-1.027 6.136-2.669 9.033-4.654 4.448-3.17 8.166-7.276 9.033-11.633-3.262 2.326-6.296 4.22-9.033 6.273" data-source="https://football-logos.cc" style="fill:#218e63;fill-rule:nonzero;stroke:none" transform="translate(-20.14 -22.17)"/><path d="M170.038 259.503c48.109 0 87.344-39.236 87.344-87.39 0-48.064-39.235-87.345-87.344-87.345-48.064 0-87.299 39.281-87.299 87.345 0 48.154 39.235 87.39 87.299 87.39m0-179.457c50.686 0 92.043 41.426 92.043 92.067 0 50.732-41.357 92.043-92.043 92.043-50.641 0-91.975-41.31-91.975-92.043 0-50.641 41.334-92.067 91.975-92.067m-48.246 189.403c2.806-4.882 1.505-9.33-3.49-12.455-4.95-3.08-9.581-2.396-12.045 1.574-1.049 1.665-1.323 3.399-.775 4.995.502 1.711 1.893 3.034 3.604 4.79 3.718 3.765 5.497 5.179 3.878 7.78-1.232 1.961-3.81 2.235-6.661.478-2.92-1.847-3.718-4.448-2.19-7.345l-2.692-1.688c-2.532 4.152-1.323 8.417 3.24 11.269 4.584 2.851 8.987 2.144 11.268-1.506 2.304-3.627.548-6.113-3.33-10.06-3.194-3.261-4.927-4.813-3.354-7.322 1.438-2.258 4.244-2.578 7.528-.502 3.262 2.03 4.152 5.27 2.304 8.326z" style="fill:#ed2d32;fill-rule:nonzero;stroke:none" transform="translate(-20.14 -22.17)"/><path d="M88.26 245.04c2.919-2.897 6.843-2.942 9.717-.228 3.376 3.148 3.057 8.167-1.05 12.57-4.38 4.607-8.941 5.269-12.546 1.916-2.691-2.532-3.239-5.498-1.483-8.28l-2.372-2.236c-2.943 3.946-2.327 8.76 1.757 12.591 5.064 4.768 11.588 4.22 16.834-1.368 5.749-6.136 5.977-12.592 1.027-17.246-4.38-4.06-9.969-4.083-14.28.046zm-22.31-62.229-10.836 1.529-.433-3.148-2.35.296.434 3.171-4.927.662.433 2.965 4.882-.661.387 2.623 2.35-.32-.342-2.623 11.793-1.62c2.692-.41 3.559-1.482 3.17-4.31-.067-.617-.318-1.438-.592-2.305l-2.532.342c.16.708.274 1.232.32 1.574.182 1.278-.32 1.643-1.757 1.825m-3.4-4.995-.273-8.19-2.714.069.273 8.235zm7.346-14.303.57-3.308-18.91-8.805 20.827-1.962.593-3.193-22.948-10.699-.548 3.125 18.226 8.395-20.05 1.825-.64 3.422 18.386 8.508-20.142 1.529-.57 3.17zm13.824-41.768 1.437-2.623-15.535-8.668-1.46 2.623zm-18.41-10.242 1.46-2.623-2.988-1.665-1.438 2.6zm22.516 3.627 1.825-2.327-13.345-10.47c-2.783-2.19-3.422-4.106-1.688-6.296 1.414-1.802 3.445-2.03 5.27-.593 2.03 1.551 2.12 3.604.364 5.863l-.319.433 1.962 1.528.296-.433c2.236-2.851 4.494-3.33 6.958-1.369 2.463 1.916 2.829 4.722 1.14 6.866-.228.32-.593.662-1.049.981l2.213 1.711c.593-.502 1.095-.958 1.414-1.391 2.578-3.285 1.87-7.779-2.03-10.858-2.304-1.803-4.882-2.076-6.958-.708.434-1.893-.342-3.65-2.304-5.155-2.897-2.281-6.455-1.756-8.987 1.483-2.783 3.513-2.304 6.98 1.528 9.991zm79.611-43.364 2.92.114.32-9.9c.113-3.353 1.87-5.019 5.063-4.95.251 0 .48.045.708.068l.114-3.148c-.274-.045-.502-.045-.776-.09-2.35-.07-4.015 1.048-5.041 3.444l.114-3.194-2.852-.137zm22.812 2.258 2.965.593 2.19-11.337c.32-1.71.547-3.08.046-4.38-.662-1.756-2.35-2.897-4.973-3.399-2.487-.456-4.608.16-6.023 1.848l1.734-8.987-2.943-.594-4.63 24.02 2.965.571 1.985-10.333c.547-3.034 2.942-4.563 6.09-3.97 2.852.525 3.262 2.145 2.67 5.224zm35.996-5.634-2.623-1.483-5.749 9.969c-.867 1.528-1.528 2.737-1.483 4.106.092 1.802 1.255 3.513 3.445 4.767q3.525 1.985 6.638.274l-1.323 2.281 2.509 1.437 8.828-15.443-2.578-1.483-4.767 8.326c-2.008 3.4-4.585 4.289-7.55 2.578-2.464-1.437-2.396-3.08-.776-5.862zm7.801 19.367c-2.6 3.125-2.19 6.478 1.255 9.444 3.604 3.125 7.049 3.17 9.421.433 2.076-2.395 1.46-4.38-.73-7.39l-1.734-2.419c-1.163-1.597-1.528-2.51-.661-3.513 1.05-1.186 2.577-1.026 4.38.548 1.824 1.55 2.258 3.398 1.094 4.881l2.213 1.916.046-.09c2.144-2.487 1.528-5.863-1.665-8.624-3.217-2.828-6.41-2.828-8.418-.501-1.916 2.258-1.55 4.128.548 7.071l1.961 2.852c1.095 1.505 1.438 2.463.457 3.58-1.095 1.301-2.989 1.141-4.95-.57-2.122-1.847-2.464-3.809-1.027-5.748zm26.781 41.722 1.368 2.691 10.265-5.224c1.529-.82 2.783-1.482 3.445-2.668.98-1.597.867-3.627-.342-6.023-1.14-2.167-2.852-3.421-5.315-3.695l2.304-1.186-1.3-2.532-15.832 8.12 1.392 2.67 8.987-4.608c3.103-1.62 5.726-.753 7.255 2.19 1.3 2.531.319 3.855-2.487 5.292zm9.991 3.216 2.578 7.801 2.555-.82-2.555-7.848zm-.776 47.585-.068 3.056 11.52.342c1.71.091 3.125.091 4.311-.616 1.642-.935 2.487-2.737 2.6-5.429.092-2.555-.889-4.494-2.76-5.68l9.148.32.114-3.012-24.431-.73-.114 2.92 10.516.342c3.08.137 4.995 2.19 4.881 5.452-.114 2.875-1.596 3.513-4.722 3.422zm-1.003 7.55-.548 2.965 23.975 4.654.593-2.966zm-8.418 27.237-1.596 3.01 3.284 1.711 1.597-3.01zm-21.671 30.019-2.509 2.304 2.532 2.692 2.51-2.304zm-11.998 9.398-2.829 2.008 7.003 24.955 2.852-1.984-6.182-20.667 17.565 12.706 2.805-2.008zm-8.714 5.566-3.057 1.506 1.711 3.33 3.011-1.55zM154.754 57.509c-.182 0-.388 0-.616.023-2.92.433-4.38 2.418-4.174 5.817l4.79-.662 4.859-.661c-.48-3.08-2.19-4.654-4.859-4.517m5.452 9.261 2.92-.41c-.069 3.992-2.692 6.775-6.843 7.322-.502.069-1.004.114-1.529.114-4.06-.114-6.934-3.08-7.642-8.212-.867-6.09 1.711-9.968 6.547-10.676.41-.022.753-.068 1.095-.068 4.425-.16 7.391 2.623 8.098 7.938.091.434.114.844.16 1.278l-8.258 1.14-4.494.616c.525 3.171 2.167 4.973 4.494 5.178.48.069.958.023 1.415 0 2.417-.365 3.877-1.893 4.037-4.22m-50.664 20.302c1.802.32 3.673-.114 5.452-1.277 4.243-2.692 4.836-7.46 1.391-12.774-1.984-3.103-4.38-4.86-6.843-5.293-1.78-.273-3.627.137-5.429 1.3-4.22 2.738-4.836 7.46-1.391 12.82 1.984 3.08 4.38 4.837 6.82 5.224m0-22.537c3.65.205 7.003 2.418 9.74 6.592 1.689 2.624 2.578 5.178 2.692 7.505v1.072c-.182 3.4-2.03 6.365-5.383 8.555-2.35 1.482-4.722 2.19-7.049 2.075-3.581-.205-6.98-2.44-9.718-6.615-1.688-2.623-2.554-5.155-2.668-7.505V75.21c.16-3.421 2.007-6.41 5.406-8.6 2.35-1.528 4.722-2.19 6.98-2.075m25.138-2.144q-1.06-.137-2.19.273-4.995 1.677-2.806 8.007c1.096 3.194 2.852 4.927 4.996 5.11.662.091 1.415 0 2.19-.274 3.08-1.05 4.22-4.015 2.897-7.893-1.14-3.285-2.943-5.041-5.087-5.223m-4.767 17.724-7.939-23.13 2.783-.936 2.966 8.645c.616-2.35 2.144-3.946 4.448-4.767.821-.274 1.688-.434 2.51-.434 3.398 0 6.41 2.373 7.96 6.912 1.894 5.52.091 9.9-4.334 11.406-1.277.433-2.486.547-3.627.365-.935-.16-1.848-.548-2.737-1.14l.753 2.144zm76.167-9.877c-.32-.069-.594-.114-.867-.16-2.144-.388-3.285.114-3.878 1.848-.525 1.642.16 2.965 2.167 3.627.89.319 1.756.433 2.577.433 1.917-.091 3.445-1.05 4.015-2.737l.867-2.51c-1.574.251-3.125-.16-4.882-.501m0 7.938c-1.324.228-2.624.16-3.924-.32-3.467-1.163-4.836-3.786-3.74-6.911 1.048-3.08 3.512-4.152 7.572-3.285 2.464.502 4.038.98 4.859.935.867-.068 1.004-.433 1.414-1.551.57-1.734-.365-3.011-2.897-3.878-1.368-.479-2.463-.547-3.285-.228-.82.297-1.414.958-1.756 1.985l-2.669-.936.046-.114c.707-2.121 2.258-3.399 4.38-3.718 1.208-.205 2.646 0 4.22.502 3.444 1.186 5.155 2.851 5.2 5.155v.205c0 .662-.159 1.37-.433 2.122l-2.851 8.417c-.434 1.187-.502 1.734.502 2.076.205.091.433.114.752.16l-.752 2.19c-.662-.046-1.21-.114-1.711-.32-1.916-.616-2.555-1.779-2.008-3.421-.958.41-1.938.775-2.92.935m51.737 17.222c1.917.206 3.673 1.21 5.042 2.989 1.209 1.505 1.848 3.102 1.87 4.676v.547c-.068 2.35-1.437 4.608-4.014 6.639-.365.273-.708.547-1.05.775l-1.848-2.304-6.09-7.801c-2.943 2.372-3.399 5.2-1.46 7.687 1.483 1.916 3.513 2.418 5.634 1.369l1.848 2.304c-3.536 1.916-7.208 1.095-9.809-2.213-3.01-3.832-2.167-8.44 2.373-11.999 2.669-2.075 5.246-2.942 7.504-2.669m0 9.307 1.871 2.396c2.623-2.122 3.011-4.631 1.14-7.003-.866-1.095-1.87-1.711-3.01-1.917-1.255-.16-2.67.229-4.152 1.21zm28.013 53.333c.479.046.98 0 1.528-.114 3.24-.547 3.604-2.577 2.943-6.204l-1.027-5.59-3.444.617-4.722.82 1.026 5.59c.548 3.125 1.551 4.722 3.696 4.881m5.703-15.625 1.642 9.352c.41 2.053.684 3.741.137 5.384-.753 2.235-2.6 3.672-5.292 4.151-.776.137-1.529.183-2.19.114-1.597-.25-2.874-1.026-3.9-2.418-.206 2.167-1.438 2.875-3.993 3.513l-3.9.958c-1.483.411-2.35.799-2.624 1.62l-.662.114-.661-3.764c.707-.616 1.802-.89 3.194-1.232l3.125-.752c3.536-.89 3.604-1.917 2.897-6.045l-.981-5.293-10.265 1.848-.593-3.24 18.363-3.284zM273.92 210.96c3.285.708 5.43-.433 6.456-3.284 1.05-3.126-.639-5.772-4.973-7.277-.502-.183-1.026-.297-1.483-.388-3.125-.57-5.52.639-6.41 3.285-1.094 3.125.548 5.794 4.814 7.231.57.205 1.072.365 1.596.433m12.113 7.186-12.113-4.129-11.017-3.764.935-2.737 2.098.707c-1.231-2.03-1.505-4.174-.73-6.364 1.255-3.673 4.494-5.52 8.714-4.973.844.114 1.757.32 2.646.661 5.635 1.917 8.007 6.068 6.524 10.448-.82 2.327-2.303 3.855-4.493 4.562l8.371 2.852zm-29.86 30.179c1.05-.16 2.03-.752 2.897-1.756 1.962-2.236 1.711-4.745-.661-7.163l-2.236 2.578-4.174 4.813c1.437 1.209 2.851 1.71 4.174 1.528m-7.733-4.699-1.916 2.236c-2.578-3.057-2.418-6.89.32-10.037 2.486-2.874 5.885-3.536 9.33-1.894.98.48 1.961 1.095 2.896 1.917 2.578 2.28 3.947 4.653 4.06 7.003v.82c-.068 1.598-.752 3.172-1.984 4.563-1.483 1.734-3.17 2.669-4.973 2.897-2.235.274-4.699-.616-7.117-2.737-.297-.274-.662-.593-.98-.89l8.097-9.307.342-.388a1.8 1.8 0 0 0-.342-.273c-2.783-2.145-5.475-1.985-7.459.273-1.597 1.87-1.734 3.947-.274 5.817M67.182 131.075l3.604-8.052c-1.323-.57-2.532-.776-3.604-.548-1.324.274-2.373 1.255-3.08 2.783-1.209 2.692-.274 5.042 2.692 6.684zm7.938-6.045 1.209-2.691c2.121 1.391 3.285 3.353 3.399 5.588v.936a8.7 8.7 0 0 1-.822 3.17c-1.984 4.449-6.432 5.84-11.724 3.513-5.612-2.555-7.574-6.797-5.543-11.268 1.208-2.692 3.125-4.289 5.543-4.677 1.756-.274 3.764.069 5.953 1.05.388.16.821.342 1.21.547l-5.27 11.77c3.467 1.438 6.159.57 7.46-2.326 1.003-2.213.501-4.243-1.415-5.612m-10.516 80.501c.525-.09.98-.205 1.528-.365 4.266-1.209 5.977-3.74 5.042-7.094-.845-2.943-3.126-4.22-6.57-3.673-.456.069-.935.137-1.483.297-4.22 1.209-5.976 3.764-5.041 7.072.867 2.988 3.125 4.31 6.524 3.763m2.35 2.578a20 20 0 0 1-2.35.502c-4.517.502-7.802-1.688-9.056-6.09a11.3 11.3 0 0 1-.388-2.03v-1.53c.32-3.398 2.76-5.976 7.14-7.23a12.5 12.5 0 0 1 2.304-.457c4.585-.547 7.87 1.643 9.124 6.045.183.707.297 1.369.388 2.03v1.575c-.319 3.398-2.783 5.976-7.162 7.185m-1.141 8.554c.479.206.958.48 1.369.821-.457-2.19.524-3.239 2.737-4.607l3.399-2.122c1.346-.821 2.03-1.437 2.03-2.327l.593-.319 1.802 3.399c-.479.776-1.437 1.369-2.669 2.144l-2.737 1.688c-3.125 1.916-2.874 2.897-.89 6.638l2.51 4.722 9.261-4.881 1.528 2.942-18.933 9.992-2.692 1.414-4.402-8.372c-1.027-1.87-1.757-3.399-1.757-5.11.023-2.35 1.323-4.288 3.741-5.588 1.802-.936 3.513-1.05 5.11-.434m0 14.417 5.634-3.011-2.646-5.041c-.958-1.757-1.893-2.92-2.988-3.354-.958-.433-2.053-.273-3.422.434-2.942 1.551-2.669 3.558-.912 6.843l2.669 4.996z" data-source="https://football-logos.cc" style="fill:#ed2d32;fill-rule:nonzero;stroke:none" transform="translate(-20.14 -22.17)"/></svg>