<svg xmlns="http://www.w3.org/2000/svg" xml:space="preserve" width="208.944" height="277.848" viewBox="0 0 208.944 277.848"><path d="M208.944 138.96c0 76.464-46.944 138.888-104.544 138.888C33.408 277.848 0 196.199 0 138.96 0 62.424 46.872 0 104.4 0c71.063 0 104.544 81.72 104.544 138.96"/><path fill="#fff" d="M207.504 138.96c0 75.672-46.296 137.52-103.104 137.52-70.056 0-103.032-80.855-103.032-137.52C1.368 63.216 47.664 1.44 104.4 1.44c70.128 0 103.104 80.856 103.104 137.52"/><path fill="#007c4f" d="M178.56 56.232c.071.072.071.144.145.216 13.536 22.464 21.743 51.264 21.743 82.512 0 71.855-43.128 130.392-96.048 130.392-29.736 0-56.448-18.575-74.016-47.663v-.073z"/><path d="M104.4 8.496c29.809 0 56.521 18.648 74.16 47.736L30.384 221.615c-13.68-22.463-21.888-51.264-21.888-82.655C8.496 67.104 51.552 8.496 104.4 8.496"/><path fill="#fff" d="M158.184 105.48c.071 20.448-6.12 37.656-17.784 53.64v21.456c5.328-5.903 10.225-11.808 15.12-19.151 10.943-16.56 16.561-32.544 16.561-52.848 0-10.296-2.017-20.52-5.761-29.808-3.168-7.992-8.136-15.696-14.04-21.816l3.672-12.456-12.384-5.904-2.088 8.712-1.08-.864v58.608l7.776-32.544c6.481 8.927 9.936 22.175 10.008 32.975M140.4 232.92v-14.832c1.368-.072 2.736-.288 4.32-.72l4.104 13.752c-2.88 1.079-5.688 1.656-8.424 1.8m0-73.8c-1.655 2.304-3.456 4.536-5.328 6.768-3.672 4.392-8.352 8.856-12.384 13.607l17.712-74.447V46.44c-1.08-.792-2.159-1.656-3.239-2.448l-7.633 11.664c3.024 2.232 5.832 4.32 8.424 6.408l-35.28 148.751-25.92-149.327c1.8-1.368 3.6-2.664 5.472-3.96l-2.16-14.472a39 39 0 0 0-5.976 3.096l-1.008-5.688-13.392 2.664 2.664 11.808C58.32 58.68 54.72 62.784 51.624 66.96c-9.576 12.816-14.76 27.936-14.76 45.576 0 9.864 1.8 19.8 5.256 29.232 3.384 9.504 9.864 20.016 15.48 29.232 3.672 6.048 7.92 12.384 10.152 19.152 1.656 5.04 2.448 10.367 2.448 14.399.072 7.272-2.592 16.848-15.984 16.632l-4.104-.072.72 13.177h5.616c20.736-.432 27.288-15.049 27.216-32.256-.792-10.513-3.24-17.784-6.696-24.625l-5.04-8.928c-8.064-13.536-15.624-25.632-19.224-42.12-1.296-5.904-2.088-11.448-2.016-16.992.072-14.688 5.904-27.144 14.904-37.44l30.312 176.976h10.224l7.992-33.624c3.96 11.448 14.112 18.505 26.28 17.641v-14.832c-7.344.504-11.88-3.528-13.392-9.072-.792-2.808-1.08-6.479-.288-9.792.863-3.456 2.951-6.552 5.688-9.648 2.735-3.168 5.399-6.047 7.991-9V159.12z"/></svg>